<svg id="Layer_1" data-name="Layer 1" xmlns="http://www.w3.org/2000/svg" viewBox="0 0 64 64"><defs><style>.cls-1{fill:#3d3d3d;}.cls-2{fill:#00a3af;}</style></defs><path class="cls-1" d="M46.75,54.375H17.25a3.129,3.129,0,0,1-3.125-3.125V12.75A3.129,3.129,0,0,1,17.25,9.625h29.5a3.129,3.129,0,0,1,3.125,3.125v38.5A3.129,3.129,0,0,1,46.75,54.375Zm-29.5-43a1.377,1.377,0,0,0-1.375,1.375v38.5a1.377,1.377,0,0,0,1.375,1.375h29.5a1.377,1.377,0,0,0,1.375-1.375V12.75a1.377,1.377,0,0,0-1.375-1.375Z"/><path class="cls-1" d="M41,15.875H23A.875.875,0,0,1,22.125,15V10.5A.875.875,0,0,1,23,9.625H41a.875.875,0,0,1,.875.875V15A.875.875,0,0,1,41,15.875Zm-17.125-1.75h16.25v-2.75H23.875Z"/><path class="cls-1" d="M42.25,25.625H30.875a.875.875,0,0,1,0-1.75H42.25a.875.875,0,0,1,0,1.75Z"/><path class="cls-1" d="M42.25,35.125H30.875a.875.875,0,0,1,0-1.75H42.25a.875.875,0,0,1,0,1.75Z"/><path class="cls-1" d="M42.25,44.625H30.875a.875.875,0,0,1,0-1.75H42.25a.875.875,0,0,1,0,1.75Z"/><path class="cls-1" d="M41,15.875H23A.875.875,0,0,1,22.125,15V10.5A.875.875,0,0,1,23,9.625H41a.875.875,0,0,1,.875.875V15A.875.875,0,0,1,41,15.875Zm-17.125-1.75h16.25v-2.75H23.875Z"/><path class="cls-1" d="M36.5,11.375h-9a.875.875,0,0,1-.875-.875,5.375,5.375,0,0,1,10.75,0A.875.875,0,0,1,36.5,11.375Zm-8.019-1.75h7.038a3.627,3.627,0,0,0-7.038,0Z"/><path class="cls-2" d="M23.75,28.625a.877.877,0,0,1-.729-.39l-2-3a.876.876,0,0,1,1.458-.97l1.271,1.907,3.271-4.907a.876.876,0,0,1,1.458.97l-4,6A.877.877,0,0,1,23.75,28.625Z"/><path class="cls-2" d="M23.75,38.125a.877.877,0,0,1-.729-.39l-2-3a.876.876,0,1,1,1.458-.97l1.271,1.908,3.271-4.908a.876.876,0,0,1,1.458.97l-4,6A.877.877,0,0,1,23.75,38.125Z"/><path class="cls-2" d="M23.75,47.625a.877.877,0,0,1-.729-.39l-2-3a.876.876,0,1,1,1.458-.97l1.271,1.908,3.271-4.908a.876.876,0,0,1,1.458.97l-4,6A.877.877,0,0,1,23.75,47.625Z"/></svg>