<svg id="Layer_1" data-name="Layer 1" xmlns="http://www.w3.org/2000/svg" viewBox="0 0 64 64"><defs><style>.cls-1{fill:#3d3d3d;}.cls-2{fill:#00a3af;}</style></defs><path class="cls-1" d="M53.5,50.875h-43A3.129,3.129,0,0,1,7.375,47.75V16.25A3.129,3.129,0,0,1,10.5,13.125h43a3.129,3.129,0,0,1,3.125,3.125v31.5A3.129,3.129,0,0,1,53.5,50.875Zm-43-36A1.377,1.377,0,0,0,9.125,16.25v31.5A1.377,1.377,0,0,0,10.5,49.125h43a1.377,1.377,0,0,0,1.375-1.375V16.25A1.377,1.377,0,0,0,53.5,14.875Z"/><path class="cls-1" d="M55.75,44.125H8.25a.875.875,0,0,1,0-1.75h47.5a.875.875,0,0,1,0,1.75Z"/><path class="cls-1" d="M41,56.875H23a.875.875,0,0,1,0-1.75A5.131,5.131,0,0,0,28.125,50,.875.875,0,0,1,29,49.125h6a.875.875,0,0,1,.875.875A5.131,5.131,0,0,0,41,55.125a.875.875,0,0,1,0,1.75Zm-13.422-1.75h8.844a6.873,6.873,0,0,1-2.242-4.25H29.82A6.873,6.873,0,0,1,27.578,55.125Z"/><path class="cls-1" d="M26.25,24.424h-9a.875.875,0,0,1,0-1.75h9a.875.875,0,0,1,0,1.75Z"/><path class="cls-1" d="M21.75,27.8h-4.5a.875.875,0,0,1,0-1.75h4.5a.875.875,0,0,1,0,1.75Z"/><path class="cls-1" d="M24,31.174H17.25a.875.875,0,0,1,0-1.75H24a.875.875,0,0,1,0,1.75Z"/><path class="cls-1" d="M26.25,34.575h-9a.875.875,0,0,1,0-1.75h9a.875.875,0,0,1,0,1.75Z"/><path class="cls-2" d="M41.646,38.5a1.819,1.819,0,0,1-1.336-.585,1.841,1.841,0,0,1-.481-1.4c.03-.376.046-.757.046-1.142a14.869,14.869,0,0,0-.385-3.37.251.251,0,0,0-.48,0,14.869,14.869,0,0,0-.385,3.37c0,.385.016.766.046,1.142a1.841,1.841,0,0,1-.481,1.4,1.824,1.824,0,0,1-2.958-.4,29.136,29.136,0,0,1-2.948-9.329,2.006,2.006,0,0,0-.383-.9,5.372,5.372,0,0,1,7-7.829.694.694,0,0,0,.694,0,5.373,5.373,0,0,1,7,7.83,2.006,2.006,0,0,0-.382.9,29.138,29.138,0,0,1-2.948,9.328A1.813,1.813,0,0,1,41.646,38.5Zm-2.4-8.423A1.957,1.957,0,0,1,41.2,31.609a16.688,16.688,0,0,1,.43,3.766q0,.648-.052,1.282l.073.093a26.386,26.386,0,0,0,2.836-8.8,3.743,3.743,0,0,1,.7-1.692,3.617,3.617,0,0,0,.041-4.2,3.609,3.609,0,0,0-4.759-1.082,2.43,2.43,0,0,1-2.43,0,3.679,3.679,0,0,0-4.359.6,3.622,3.622,0,0,0-.36,4.679,3.742,3.742,0,0,1,.7,1.692,27.363,27.363,0,0,0,2.771,8.771l.115.013c-.011-.495-.029-.922-.029-1.354a16.688,16.688,0,0,1,.43-3.766A1.957,1.957,0,0,1,39.25,30.077Z"/></svg>