<svg id="Layer_1" data-name="Layer 1" xmlns="http://www.w3.org/2000/svg" viewBox="0 0 64 64"><defs><style>.cls-1{fill:#3d3d3d;}.cls-2{fill:#00a3af;}</style></defs><path class="cls-1" d="M31.977,55.853a23.744,23.744,0,0,1-14.048-4.57l-6.158,2.053a.875.875,0,0,1-1.107-1.107l2.053-6.158a23.912,23.912,0,1,1,19.26,9.782ZM18.086,49.434a.877.877,0,0,1,.53.178,22.122,22.122,0,1,0-4.229-4.228.87.87,0,0,1,.134.806l-1.644,4.932,4.932-1.643A.85.85,0,0,1,18.086,49.434Z"/><path class="cls-2" d="M35.194,44.875a2.138,2.138,0,0,1-1.567-.686,2.174,2.174,0,0,1-.565-1.643c.041-.51.063-1.025.063-1.546a20.16,20.16,0,0,0-.521-4.56.625.625,0,0,0-1.208,0A20.16,20.16,0,0,0,30.875,41c0,.521.022,1.036.063,1.546a2.174,2.174,0,0,1-.565,1.643A2.141,2.141,0,0,1,26.9,43.72,38.574,38.574,0,0,1,23,31.375a2.954,2.954,0,0,0-.563-1.335,6.867,6.867,0,0,1-.078-7.967,6.962,6.962,0,0,1,.758-.912,6.861,6.861,0,0,1,8.275-1.136,1.207,1.207,0,0,0,1.213,0,6.861,6.861,0,0,1,8.276,1.137,6.8,6.8,0,0,1,.757.911h0a6.867,6.867,0,0,1-.078,7.967A2.954,2.954,0,0,0,41,31.375,38.551,38.551,0,0,1,37.1,43.72,2.125,2.125,0,0,1,35.194,44.875ZM32,34.227a2.324,2.324,0,0,1,2.31,1.817A21.965,21.965,0,0,1,34.875,41c0,.553-.023,1.12-.069,1.687a.41.41,0,0,0,.107.315.441.441,0,0,0,.627-.081,36.807,36.807,0,0,0,3.726-11.786,4.688,4.688,0,0,1,.881-2.125,5.115,5.115,0,0,0,.057-5.936,5.236,5.236,0,0,0-.564-.68,5.11,5.11,0,0,0-6.165-.849,2.947,2.947,0,0,1-2.951,0,5.108,5.108,0,0,0-6.163.848,5.269,5.269,0,0,0-.566.682,5.115,5.115,0,0,0,.058,5.935,4.688,4.688,0,0,1,.881,2.125,36.83,36.83,0,0,0,3.725,11.786.444.444,0,0,0,.628.081.41.41,0,0,0,.107-.315c-.046-.567-.069-1.134-.069-1.687a21.965,21.965,0,0,1,.565-4.956A2.324,2.324,0,0,1,32,34.227Z"/></svg>