<svg id="Layer_1" data-name="Layer 1" xmlns="http://www.w3.org/2000/svg" viewBox="0 0 64 64"><defs><style>.cls-1{fill:#3d3d3d;}.cls-2{fill:#00a3af;}</style></defs><path class="cls-1" d="M46.693,38.879A.876.876,0,0,1,45.818,38V29.861a.83.83,0,0,1,.012-.141c.358-2.2,1.98-4.419,4.387-4.42l1.036,0a.874.874,0,0,1,.868.953q-.024.271-.024.543v6.519a.876.876,0,0,1-.24.6L49.1,36.836l-1.788,1.787A.875.875,0,0,1,46.693,38.879Zm.875-8.944v5.958l.278-.278,2.5-2.644V27.05h-.133C48.824,27.05,47.822,28.524,47.568,29.935Z"/><path class="cls-1" d="M42.229,55.125H39.2a5.294,5.294,0,0,1-5.287-5.288,15.14,15.14,0,0,1,4.437-10.713l5.681-5.679a.876.876,0,0,1,1.165-.064l.357.293a5.066,5.066,0,0,1,1.53,3.545.861.861,0,0,1,.232.166.877.877,0,0,1,0,1.238L46.2,39.734c-.032.043-.069.09-.094.117l-4.92,4.9a.875.875,0,0,1-1.237-1.239l4.963-4.963a2.806,2.806,0,0,0-.248-3.263l-5.08,5.078a13.408,13.408,0,0,0-3.924,9.475A3.542,3.542,0,0,0,39.2,53.375h3.032a3.553,3.553,0,0,0,3.039-1.728l9.523-15.982a1.513,1.513,0,0,0,.216-.766l.124-11.774h-.387a2.692,2.692,0,0,0-2.2,1.591,4.035,4.035,0,0,0-.417,1.538.875.875,0,0,1-1.744-.151,5.79,5.79,0,0,1,.612-2.2,4.333,4.333,0,0,1,3.754-2.527h1.273a.876.876,0,0,1,.874.884l-.134,12.658a3.282,3.282,0,0,1-.463,1.644L46.771,52.544A5.312,5.312,0,0,1,42.229,55.125Z"/><path class="cls-1" d="M46.693,38.879a.875.875,0,0,1-.618-1.494l1.771-1.77,2.5-2.644V26.8c0-.233.01-.467.032-.7a.874.874,0,1,1,1.742.156q-.024.271-.024.543v6.519a.876.876,0,0,1-.24.6L49.1,36.836l-1.788,1.787A.872.872,0,0,1,46.693,38.879Z"/><path class="cls-1" d="M40.568,45a.876.876,0,0,1-.619-1.494h0l4.961-4.962A.875.875,0,0,1,46.2,39.731a.676.676,0,0,1-.093.12l-.014.014-4.906,4.884A.873.873,0,0,1,40.568,45Z"/><path class="cls-1" d="M17.307,38.879a.875.875,0,0,1-.619-.256l-1.77-1.769-2.776-2.933a.876.876,0,0,1-.24-.6V26.8q0-.271-.024-.543a.874.874,0,0,1,.868-.953l1.033,0c2.41,0,4.032,2.224,4.39,4.42a.83.83,0,0,1,.012.141V38a.876.876,0,0,1-.875.875Zm-3.655-5.908,2.78,2.922V29.935c-.254-1.411-1.256-2.885-2.649-2.885h-.13Z"/><path class="cls-1" d="M24.8,55.125H21.771a5.312,5.312,0,0,1-4.542-2.581L7.705,36.562a3.29,3.29,0,0,1-.462-1.643L7.109,22.26a.876.876,0,0,1,.874-.884H9.254A4.333,4.333,0,0,1,13.01,23.9a5.79,5.79,0,0,1,.612,2.2.875.875,0,0,1-.8.947.865.865,0,0,1-.948-.8,4.035,4.035,0,0,0-.417-1.538,2.693,2.693,0,0,0-2.207-1.591H8.869L8.993,34.9a1.515,1.515,0,0,0,.215.764l9.524,15.983a3.553,3.553,0,0,0,3.039,1.728H24.8a3.542,3.542,0,0,0,3.537-3.538,13.4,13.4,0,0,0-3.925-9.475L19.33,35.278a2.811,2.811,0,0,0-.2,3.313l4.922,4.919a.875.875,0,0,1-1.237,1.239l-4.906-4.884a1.179,1.179,0,0,1-.11-.133l-1.111-1.109a.874.874,0,0,1,.239-1.407,4.961,4.961,0,0,1,1.479-3.5l.4-.333a.876.876,0,0,1,1.165.064l5.68,5.679A15.137,15.137,0,0,1,30.09,49.837,5.294,5.294,0,0,1,24.8,55.125Z"/><path class="cls-1" d="M17.307,38.879a.872.872,0,0,1-.619-.256l-1.77-1.769-2.776-2.933a.876.876,0,0,1-.24-.6V26.8q0-.271-.024-.543a.874.874,0,1,1,1.742-.156c.022.232.032.466.032.7v6.171l2.52,2.662,1.753,1.752a.875.875,0,0,1-.618,1.494Z"/><path class="cls-1" d="M23.432,45a.873.873,0,0,1-.618-.255l-4.906-4.884-.014-.014a1.448,1.448,0,0,1-.139-.181.838.838,0,0,1,.1-1.178.9.9,0,0,1,1.234.055l4.963,4.963A.876.876,0,0,1,23.432,45Z"/><path class="cls-2" d="M32,32.625A11.875,11.875,0,1,1,43.875,20.75,11.888,11.888,0,0,1,32,32.625Zm0-22A10.125,10.125,0,1,0,42.125,20.75,10.136,10.136,0,0,0,32,10.625Z"/><path class="cls-2" d="M32,12.875A.875.875,0,0,1,31.125,12V9.75a.875.875,0,0,1,1.75,0V12A.875.875,0,0,1,32,12.875Z"/><path class="cls-2" d="M32,32.625a.875.875,0,0,1-.875-.875V29.5a.875.875,0,0,1,1.75,0v2.25A.875.875,0,0,1,32,32.625Z"/><path class="cls-2" d="M23.25,21.625H21a.875.875,0,0,1,0-1.75h2.25a.875.875,0,0,1,0,1.75Z"/><path class="cls-2" d="M43,21.625H40.75a.875.875,0,0,1,0-1.75H43a.875.875,0,0,1,0,1.75Z"/><path class="cls-2" d="M25.812,15.438a.874.874,0,0,1-.619-.256L23.6,13.59a.875.875,0,0,1,1.238-1.237l1.591,1.591a.876.876,0,0,1-.62,1.494Z"/><path class="cls-2" d="M39.778,29.4a.874.874,0,0,1-.619-.256l-1.591-1.591a.876.876,0,0,1,1.239-1.238L40.4,27.91a.875.875,0,0,1-.619,1.493Z"/><path class="cls-2" d="M24.222,29.4A.875.875,0,0,1,23.6,27.91l1.59-1.592a.876.876,0,0,1,1.239,1.238l-1.591,1.591A.874.874,0,0,1,24.222,29.4Z"/><path class="cls-2" d="M38.187,15.438a.876.876,0,0,1-.619-1.494l1.591-1.591A.875.875,0,0,1,40.4,13.59l-1.59,1.592A.874.874,0,0,1,38.187,15.438Z"/><path class="cls-2" d="M37.543,23.921a.86.86,0,0,1-.335-.067l-5.543-2.295a.876.876,0,0,1-.54-.809V16.625a.875.875,0,0,1,1.75,0v3.541l5,2.071a.875.875,0,0,1-.335,1.684Z"/></svg>